<?xml version="1.0" encoding="UTF-8" standalone="no"?>
<!DOCTYPE svg PUBLIC "-//W3C//DTD SVG 1.1//EN"
 "http://www.w3.org/Graphics/SVG/1.1/DTD/svg11.dtd">
<!-- Generated by graphviz version 14.1.4 (20260321.0153)
 -->
<!-- Title: derivation Pages: 1 -->
<svg width="926pt" height="492pt"
 viewBox="0.00 0.00 926.00 492.00" xmlns="http://www.w3.org/2000/svg" xmlns:xlink="http://www.w3.org/1999/xlink">
<g id="graph0" class="graph" transform="scale(1 1) rotate(0) translate(4 488)">
<title>derivation</title>
<g id="clust1" class="cluster">
<title>cluster_legend</title>
</g>
<!-- seed -->
<g id="node1" class="node">
<title>seed</title>
<path fill="#e3f2fd" stroke="#4a90d9" stroke-width="2" d="M622.25,-468C622.25,-468 573.25,-468 573.25,-468 567.25,-468 561.25,-462 561.25,-456 561.25,-456 561.25,-444 561.25,-444 561.25,-438 567.25,-432 573.25,-432 573.25,-432 622.25,-432 622.25,-432 628.25,-432 634.25,-438 634.25,-444 634.25,-444 634.25,-456 634.25,-456 634.25,-462 628.25,-468 622.25,-468"/>
<text xml:space="preserve" text-anchor="middle" x="597.75" y="-444.2" font-family="Helvetica,sans-Serif" font-size="14.00">x² = x + 1</text>
</g>
<!-- shift -->
<g id="node2" class="node">
<title>shift</title>
<path fill="#f8f9fa" stroke="#dee2e6" d="M581.38,-396C581.38,-396 476.12,-396 476.12,-396 470.12,-396 464.12,-390 464.12,-384 464.12,-384 464.12,-372 464.12,-372 464.12,-366 470.12,-360 476.12,-360 476.12,-360 581.38,-360 581.38,-360 587.38,-360 593.38,-366 593.38,-372 593.38,-372 593.38,-384 593.38,-384 593.38,-390 587.38,-396 581.38,-396"/>
<text xml:space="preserve" text-anchor="middle" x="528.75" y="-379.55" font-family="Helvetica,sans-Serif" font-size="11.00">Golden&#45;mean shift X_m</text>
<text xml:space="preserve" text-anchor="middle" x="528.75" y="-367.55" font-family="Helvetica,sans-Serif" font-size="11.00">(no consecutive 1s)</text>
</g>
<!-- seed&#45;&gt;shift -->
<g id="edge1" class="edge">
<title>seed&#45;&gt;shift</title>
<path fill="none" stroke="#6c757d" d="M580.34,-431.34C571.69,-422.56 561.13,-411.85 551.82,-402.41"/>
<polygon fill="#6c757d" stroke="#6c757d" points="553.64,-400.76 546.98,-397.49 550.15,-404.2 553.64,-400.76"/>
</g>
<!-- fib -->
<g id="node3" class="node">
<title>fib</title>
<path fill="#f8f9fa" stroke="#dee2e6" d="M710.38,-396C710.38,-396 623.12,-396 623.12,-396 617.12,-396 611.12,-390 611.12,-384 611.12,-384 611.12,-372 611.12,-372 611.12,-366 617.12,-360 623.12,-360 623.12,-360 710.38,-360 710.38,-360 716.38,-360 722.38,-366 722.38,-372 722.38,-372 722.38,-384 722.38,-384 722.38,-390 716.38,-396 710.38,-396"/>
<text xml:space="preserve" text-anchor="middle" x="666.75" y="-379.55" font-family="Helvetica,sans-Serif" font-size="11.00">Fibonacci sequence</text>
<text xml:space="preserve" text-anchor="middle" x="666.75" y="-367.55" font-family="Helvetica,sans-Serif" font-size="11.00">F_n</text>
</g>
<!-- seed&#45;&gt;fib -->
<g id="edge2" class="edge">
<title>seed&#45;&gt;fib</title>
<path fill="none" stroke="#6c757d" d="M615.16,-431.34C623.81,-422.56 634.37,-411.85 643.68,-402.41"/>
<polygon fill="#6c757d" stroke="#6c757d" points="645.35,-404.2 648.52,-397.49 641.86,-400.76 645.35,-404.2"/>
</g>
<!-- zeck -->
<g id="node4" class="node">
<title>zeck</title>
<path fill="#f8f9fa" stroke="#dee2e6" d="M384,-324C384,-324 273.5,-324 273.5,-324 267.5,-324 261.5,-318 261.5,-312 261.5,-312 261.5,-300 261.5,-300 261.5,-294 267.5,-288 273.5,-288 273.5,-288 384,-288 384,-288 390,-288 396,-294 396,-300 396,-300 396,-312 396,-312 396,-318 390,-324 384,-324"/>
<text xml:space="preserve" text-anchor="middle" x="328.75" y="-307.93" font-family="Helvetica,sans-Serif" font-size="11.00">Zeckendorf bijection</text>
<text xml:space="preserve" text-anchor="middle" x="328.75" y="-295.93" font-family="Helvetica,sans-Serif" font-size="11.00">X_m ↔ {0,...,F_{m+2}&#45;1}</text>
</g>
<!-- shift&#45;&gt;zeck -->
<g id="edge3" class="edge">
<title>shift&#45;&gt;zeck</title>
<path fill="none" stroke="#6c757d" d="M478.8,-359.52C450.65,-349.67 415.38,-337.32 386.11,-327.07"/>
<polygon fill="#6c757d" stroke="#6c757d" points="387.26,-324.88 379.84,-324.88 385.64,-329.51 387.26,-324.88"/>
</g>
<!-- entropy -->
<g id="node12" class="node">
<title>entropy</title>
<path fill="#d4edda" stroke="#28a745" d="M509.88,-324C509.88,-324 425.62,-324 425.62,-324 419.62,-324 413.62,-318 413.62,-312 413.62,-312 413.62,-300 413.62,-300 413.62,-294 419.62,-288 425.62,-288 425.62,-288 509.88,-288 509.88,-288 515.88,-288 521.88,-294 521.88,-300 521.88,-300 521.88,-312 521.88,-312 521.88,-318 515.88,-324 509.88,-324"/>
<text xml:space="preserve" text-anchor="middle" x="467.75" y="-307.55" font-family="Helvetica,sans-Serif" font-size="11.00">Topological entropy</text>
<text xml:space="preserve" text-anchor="middle" x="467.75" y="-295.55" font-family="Helvetica,sans-Serif" font-size="11.00">h = log φ</text>
</g>
<!-- shift&#45;&gt;entropy -->
<g id="edge11" class="edge">
<title>shift&#45;&gt;entropy</title>
<path fill="none" stroke="#6c757d" d="M513.67,-359.7C505.99,-350.88 496.54,-340.03 488.21,-330.47"/>
<polygon fill="#6c757d" stroke="#6c757d" points="490.1,-328.91 483.65,-325.25 486.4,-332.13 490.1,-328.91"/>
</g>
<!-- transfer -->
<g id="node13" class="node">
<title>transfer</title>
<path fill="#f8f9fa" stroke="#dee2e6" d="M629.12,-324C629.12,-324 552.38,-324 552.38,-324 546.38,-324 540.38,-318 540.38,-312 540.38,-312 540.38,-300 540.38,-300 540.38,-294 546.38,-288 552.38,-288 552.38,-288 629.12,-288 629.12,-288 635.12,-288 641.12,-294 641.12,-300 641.12,-300 641.12,-312 641.12,-312 641.12,-318 635.12,-324 629.12,-324"/>
<text xml:space="preserve" text-anchor="middle" x="590.75" y="-307.55" font-family="Helvetica,sans-Serif" font-size="11.00">Transfer matrix</text>
<text xml:space="preserve" text-anchor="middle" x="590.75" y="-295.55" font-family="Helvetica,sans-Serif" font-size="11.00">Perron&#45;Frobenius</text>
</g>
<!-- shift&#45;&gt;transfer -->
<g id="edge12" class="edge">
<title>shift&#45;&gt;transfer</title>
<path fill="none" stroke="#6c757d" d="M544.08,-359.7C551.88,-350.88 561.49,-340.03 569.96,-330.47"/>
<polygon fill="#6c757d" stroke="#6c757d" points="571.79,-332.1 574.6,-325.24 568.12,-328.85 571.79,-332.1"/>
</g>
<!-- pathind -->
<g id="node18" class="node">
<title>pathind</title>
<path fill="#f8f9fa" stroke="#dee2e6" d="M770.38,-324C770.38,-324 671.12,-324 671.12,-324 665.12,-324 659.12,-318 659.12,-312 659.12,-312 659.12,-300 659.12,-300 659.12,-294 665.12,-288 671.12,-288 671.12,-288 770.38,-288 770.38,-288 776.38,-288 782.38,-294 782.38,-300 782.38,-300 782.38,-312 782.38,-312 782.38,-318 776.38,-324 770.38,-324"/>
<text xml:space="preserve" text-anchor="middle" x="720.75" y="-307.55" font-family="Helvetica,sans-Serif" font-size="11.00">Path independent sets</text>
<text xml:space="preserve" text-anchor="middle" x="720.75" y="-295.55" font-family="Helvetica,sans-Serif" font-size="11.00">= F_{n+2}</text>
</g>
<!-- shift&#45;&gt;pathind -->
<g id="edge18" class="edge">
<title>shift&#45;&gt;pathind</title>
<path fill="none" stroke="#6c757d" d="M576.7,-359.52C603.61,-349.71 637.3,-337.43 665.33,-327.21"/>
<polygon fill="#6c757d" stroke="#6c757d" points="665.92,-329.6 671.65,-324.9 664.24,-325 665.92,-329.6"/>
</g>
<!-- ring -->
<g id="node5" class="node">
<title>ring</title>
<path fill="#fff3cd" stroke="#f0ad4e" d="M239,-252C239,-252 152.5,-252 152.5,-252 146.5,-252 140.5,-246 140.5,-240 140.5,-240 140.5,-228 140.5,-228 140.5,-222 146.5,-216 152.5,-216 152.5,-216 239,-216 239,-216 245,-216 251,-222 251,-228 251,-228 251,-240 251,-240 251,-246 245,-252 239,-252"/>
<text xml:space="preserve" text-anchor="middle" x="195.75" y="-235.93" font-family="Helvetica,sans-Serif" font-size="11.00">Ring isomorphism</text>
<text xml:space="preserve" text-anchor="middle" x="195.75" y="-223.93" font-family="Helvetica,sans-Serif" font-size="11.00">X_m ≅ Z/F_{m+2}Z</text>
</g>
<!-- zeck&#45;&gt;ring -->
<g id="edge4" class="edge">
<title>zeck&#45;&gt;ring</title>
<path fill="none" stroke="#6c757d" d="M295.53,-287.52C277.46,-278.01 254.98,-266.17 235.93,-256.15"/>
<polygon fill="#6c757d" stroke="#6c757d" points="237.22,-254.06 229.88,-252.97 234.94,-258.39 237.22,-254.06"/>
</g>
<!-- fold -->
<g id="node8" class="node">
<title>fold</title>
<path fill="#f8f9fa" stroke="#dee2e6" d="M373.12,-252C373.12,-252 284.38,-252 284.38,-252 278.38,-252 272.38,-246 272.38,-240 272.38,-240 272.38,-228 272.38,-228 272.38,-222 278.38,-216 284.38,-216 284.38,-216 373.12,-216 373.12,-216 379.12,-216 385.12,-222 385.12,-228 385.12,-228 385.12,-240 385.12,-240 385.12,-246 379.12,-252 373.12,-252"/>
<text xml:space="preserve" text-anchor="middle" x="328.75" y="-236.68" font-family="Helvetica,sans-Serif" font-size="11.00">Fold operator</text>
<text xml:space="preserve" text-anchor="middle" x="328.75" y="-224.68" font-family="Helvetica,sans-Serif" font-size="11.00">Φ: X_{m+1} → X_m</text>
</g>
<!-- zeck&#45;&gt;fold -->
<g id="edge7" class="edge">
<title>zeck&#45;&gt;fold</title>
<path fill="none" stroke="#6c757d" d="M328.75,-287.7C328.75,-279.47 328.75,-269.48 328.75,-260.42"/>
<polygon fill="#6c757d" stroke="#6c757d" points="331.2,-260.62 328.75,-253.62 326.3,-260.62 331.2,-260.62"/>
</g>
<!-- fibcube -->
<g id="node19" class="node">
<title>fibcube</title>
<path fill="#f8f9fa" stroke="#dee2e6" d="M484.38,-252C484.38,-252 415.12,-252 415.12,-252 409.12,-252 403.12,-246 403.12,-240 403.12,-240 403.12,-228 403.12,-228 403.12,-222 409.12,-216 415.12,-216 415.12,-216 484.38,-216 484.38,-216 490.38,-216 496.38,-222 496.38,-228 496.38,-228 496.38,-240 496.38,-240 496.38,-246 490.38,-252 484.38,-252"/>
<text xml:space="preserve" text-anchor="middle" x="449.75" y="-235.55" font-family="Helvetica,sans-Serif" font-size="11.00">Fibonacci cubes</text>
<text xml:space="preserve" text-anchor="middle" x="449.75" y="-223.55" font-family="Helvetica,sans-Serif" font-size="11.00">~510 theorems</text>
</g>
<!-- zeck&#45;&gt;fibcube -->
<g id="edge19" class="edge">
<title>zeck&#45;&gt;fibcube</title>
<path fill="none" stroke="#6c757d" d="M358.97,-287.52C375.26,-278.09 395.5,-266.38 412.73,-256.41"/>
<polygon fill="#6c757d" stroke="#6c757d" points="413.77,-258.64 418.6,-253.02 411.32,-254.4 413.77,-258.64"/>
</g>
<!-- field -->
<g id="node6" class="node">
<title>field</title>
<path fill="#f8f9fa" stroke="#dee2e6" d="M107.5,-180C107.5,-180 12,-180 12,-180 6,-180 0,-174 0,-168 0,-168 0,-156 0,-156 0,-150 6,-144 12,-144 12,-144 107.5,-144 107.5,-144 113.5,-144 119.5,-150 119.5,-156 119.5,-156 119.5,-168 119.5,-168 119.5,-174 113.5,-180 107.5,-180"/>
<text xml:space="preserve" text-anchor="middle" x="59.75" y="-157.55" font-family="Helvetica,sans-Serif" font-size="11.00">Fibonacci prime fields</text>
</g>
<!-- ring&#45;&gt;field -->
<g id="edge5" class="edge">
<title>ring&#45;&gt;field</title>
<path fill="none" stroke="#6c757d" d="M161.78,-215.52C143.31,-206.01 120.32,-194.17 100.84,-184.15"/>
<polygon fill="#6c757d" stroke="#6c757d" points="101.98,-181.98 94.63,-180.95 99.73,-186.34 101.98,-181.98"/>
</g>
<!-- crt -->
<g id="node7" class="node">
<title>crt</title>
<path fill="#f8f9fa" stroke="#dee2e6" d="M236,-180C236,-180 149.5,-180 149.5,-180 143.5,-180 137.5,-174 137.5,-168 137.5,-168 137.5,-156 137.5,-156 137.5,-150 143.5,-144 149.5,-144 149.5,-144 236,-144 236,-144 242,-144 248,-150 248,-156 248,-156 248,-168 248,-168 248,-174 242,-180 236,-180"/>
<text xml:space="preserve" text-anchor="middle" x="192.75" y="-157.55" font-family="Helvetica,sans-Serif" font-size="11.00">CRT decomposition</text>
</g>
<!-- ring&#45;&gt;crt -->
<g id="edge6" class="edge">
<title>ring&#45;&gt;crt</title>
<path fill="none" stroke="#6c757d" d="M195.01,-215.7C194.66,-207.47 194.23,-197.48 193.84,-188.42"/>
<polygon fill="#6c757d" stroke="#6c757d" points="196.3,-188.51 193.55,-181.62 191.4,-188.72 196.3,-188.51"/>
</g>
<!-- tower -->
<g id="node15" class="node">
<title>tower</title>
<path fill="#f8f9fa" stroke="#dee2e6" d="M379.12,-180C379.12,-180 278.38,-180 278.38,-180 272.38,-180 266.38,-174 266.38,-168 266.38,-168 266.38,-156 266.38,-156 266.38,-150 272.38,-144 278.38,-144 278.38,-144 379.12,-144 379.12,-144 385.12,-144 391.12,-150 391.12,-156 391.12,-156 391.12,-168 391.12,-168 391.12,-174 385.12,-180 379.12,-180"/>
<text xml:space="preserve" text-anchor="middle" x="328.75" y="-164.68" font-family="Helvetica,sans-Serif" font-size="11.00">Modular tower</text>
<text xml:space="preserve" text-anchor="middle" x="328.75" y="-152.68" font-family="Helvetica,sans-Serif" font-size="11.00">X_{m+1} → X_m → ...</text>
</g>
<!-- ring&#45;&gt;tower -->
<g id="edge15" class="edge">
<title>ring&#45;&gt;tower</title>
<path fill="none" stroke="#6c757d" d="M228.97,-215.52C247.04,-206.01 269.52,-194.17 288.57,-184.15"/>
<polygon fill="#6c757d" stroke="#6c757d" points="289.56,-186.39 294.62,-180.97 287.28,-182.06 289.56,-186.39"/>
</g>
<!-- moments -->
<g id="node9" class="node">
<title>moments</title>
<path fill="#fff3cd" stroke="#f0ad4e" d="M520,-180C520,-180 421.5,-180 421.5,-180 415.5,-180 409.5,-174 409.5,-168 409.5,-168 409.5,-156 409.5,-156 409.5,-150 415.5,-144 421.5,-144 421.5,-144 520,-144 520,-144 526,-144 532,-150 532,-156 532,-156 532,-168 532,-168 532,-174 526,-180 520,-180"/>
<text xml:space="preserve" text-anchor="middle" x="470.75" y="-157.55" font-family="Helvetica,sans-Serif" font-size="11.00">Moment sums S_q(m)</text>
</g>
<!-- fold&#45;&gt;moments -->
<g id="edge8" class="edge">
<title>fold&#45;&gt;moments</title>
<path fill="none" stroke="#6c757d" d="M364.22,-215.52C383.59,-205.97 407.72,-194.07 428.12,-184.01"/>
<polygon fill="#6c757d" stroke="#6c757d" points="429.18,-186.22 434.38,-180.93 427.02,-181.83 429.18,-186.22"/>
</g>
<!-- fold&#45;&gt;tower -->
<g id="edge14" class="edge">
<title>fold&#45;&gt;tower</title>
<path fill="none" stroke="#6c757d" d="M328.75,-215.7C328.75,-207.47 328.75,-197.48 328.75,-188.42"/>
<polygon fill="#6c757d" stroke="#6c757d" points="331.2,-188.62 328.75,-181.62 326.3,-188.62 331.2,-188.62"/>
</g>
<!-- s2 -->
<g id="node10" class="node">
<title>s2</title>
<path fill="#d4edda" stroke="#28a745" d="M502,-108C502,-108 439.5,-108 439.5,-108 433.5,-108 427.5,-102 427.5,-96 427.5,-96 427.5,-84 427.5,-84 427.5,-78 433.5,-72 439.5,-72 439.5,-72 502,-72 502,-72 508,-72 514,-78 514,-84 514,-84 514,-96 514,-96 514,-102 508,-108 502,-108"/>
<text xml:space="preserve" text-anchor="middle" x="470.75" y="-91.55" font-family="Helvetica,sans-Serif" font-size="11.00">S₂ recurrence</text>
<text xml:space="preserve" text-anchor="middle" x="470.75" y="-79.55" font-family="Helvetica,sans-Serif" font-size="11.00">(unconditional)</text>
</g>
<!-- moments&#45;&gt;s2 -->
<g id="edge9" class="edge">
<title>moments&#45;&gt;s2</title>
<path fill="none" stroke="#6c757d" d="M470.75,-143.7C470.75,-135.47 470.75,-125.48 470.75,-116.42"/>
<polygon fill="#6c757d" stroke="#6c757d" points="473.2,-116.62 470.75,-109.62 468.3,-116.62 473.2,-116.62"/>
</g>
<!-- hankel -->
<g id="node11" class="node">
<title>hankel</title>
<path fill="#f8f9fa" stroke="#dee2e6" d="M508.75,-36C508.75,-36 432.75,-36 432.75,-36 426.75,-36 420.75,-30 420.75,-24 420.75,-24 420.75,-12 420.75,-12 420.75,-6 426.75,0 432.75,0 432.75,0 508.75,0 508.75,0 514.75,0 520.75,-6 520.75,-12 520.75,-12 520.75,-24 520.75,-24 520.75,-30 514.75,-36 508.75,-36"/>
<text xml:space="preserve" text-anchor="middle" x="470.75" y="-19.55" font-family="Helvetica,sans-Serif" font-size="11.00">Hankel spectrum</text>
<text xml:space="preserve" text-anchor="middle" x="470.75" y="-7.55" font-family="Helvetica,sans-Serif" font-size="11.00">minimal order = 3</text>
</g>
<!-- s2&#45;&gt;hankel -->
<g id="edge10" class="edge">
<title>s2&#45;&gt;hankel</title>
<path fill="none" stroke="#6c757d" d="M470.75,-71.7C470.75,-63.47 470.75,-53.48 470.75,-44.42"/>
<polygon fill="#6c757d" stroke="#6c757d" points="473.2,-44.62 470.75,-37.62 468.3,-44.62 473.2,-44.62"/>
</g>
<!-- orbits -->
<g id="node14" class="node">
<title>orbits</title>
<path fill="#f8f9fa" stroke="#dee2e6" d="M620.88,-252C620.88,-252 560.62,-252 560.62,-252 554.62,-252 548.62,-246 548.62,-240 548.62,-240 548.62,-228 548.62,-228 548.62,-222 554.62,-216 560.62,-216 560.62,-216 620.88,-216 620.88,-216 626.88,-216 632.88,-222 632.88,-228 632.88,-228 632.88,-240 632.88,-240 632.88,-246 626.88,-252 620.88,-252"/>
<text xml:space="preserve" text-anchor="middle" x="590.75" y="-229.55" font-family="Helvetica,sans-Serif" font-size="11.00">Periodic orbits</text>
</g>
<!-- transfer&#45;&gt;orbits -->
<g id="edge13" class="edge">
<title>transfer&#45;&gt;orbits</title>
<path fill="none" stroke="#6c757d" d="M590.75,-287.7C590.75,-279.47 590.75,-269.48 590.75,-260.42"/>
<polygon fill="#6c757d" stroke="#6c757d" points="593.2,-260.62 590.75,-253.62 588.3,-260.62 593.2,-260.62"/>
</g>
<!-- invlim -->
<g id="node16" class="node">
<title>invlim</title>
<path fill="#fff3cd" stroke="#f0ad4e" d="M257.12,-108C257.12,-108 174.38,-108 174.38,-108 168.38,-108 162.38,-102 162.38,-96 162.38,-96 162.38,-84 162.38,-84 162.38,-78 168.38,-72 174.38,-72 174.38,-72 257.12,-72 257.12,-72 263.12,-72 269.12,-78 269.12,-84 269.12,-84 269.12,-96 269.12,-96 269.12,-102 263.12,-108 257.12,-108"/>
<text xml:space="preserve" text-anchor="middle" x="215.75" y="-91.55" font-family="Helvetica,sans-Serif" font-size="11.00">Inverse limit X_∞</text>
<text xml:space="preserve" text-anchor="middle" x="215.75" y="-79.55" font-family="Helvetica,sans-Serif" font-size="11.00">(Fibonacci p&#45;adics)</text>
</g>
<!-- tower&#45;&gt;invlim -->
<g id="edge16" class="edge">
<title>tower&#45;&gt;invlim</title>
<path fill="none" stroke="#6c757d" d="M300.53,-143.52C285.45,-134.18 266.75,-122.59 250.75,-112.68"/>
<polygon fill="#6c757d" stroke="#6c757d" points="252.14,-110.66 244.9,-109.06 249.56,-114.83 252.14,-110.66"/>
</g>
<!-- defect -->
<g id="node17" class="node">
<title>defect</title>
<path fill="#f8f9fa" stroke="#dee2e6" d="M384.25,-108C384.25,-108 299.25,-108 299.25,-108 293.25,-108 287.25,-102 287.25,-96 287.25,-96 287.25,-84 287.25,-84 287.25,-78 293.25,-72 299.25,-72 299.25,-72 384.25,-72 384.25,-72 390.25,-72 396.25,-78 396.25,-84 396.25,-84 396.25,-96 396.25,-96 396.25,-102 390.25,-108 384.25,-108"/>
<text xml:space="preserve" text-anchor="middle" x="341.75" y="-91.55" font-family="Helvetica,sans-Serif" font-size="11.00">Defect algebra</text>
<text xml:space="preserve" text-anchor="middle" x="341.75" y="-79.55" font-family="Helvetica,sans-Serif" font-size="11.00">(discrete curvature)</text>
</g>
<!-- tower&#45;&gt;defect -->
<g id="edge17" class="edge">
<title>tower&#45;&gt;defect</title>
<path fill="none" stroke="#6c757d" d="M331.96,-143.7C333.49,-135.47 335.35,-125.48 337.03,-116.42"/>
<polygon fill="#6c757d" stroke="#6c757d" points="339.43,-116.92 338.3,-109.59 334.61,-116.03 339.43,-116.92"/>
</g>
<!-- l1 -->
<g id="node20" class="node">
<title>l1</title>
<path fill="#d4edda" stroke="#28a745" d="M711.12,-468C711.12,-468 664.38,-468 664.38,-468 658.38,-468 652.38,-462 652.38,-456 652.38,-456 652.38,-444 652.38,-444 652.38,-438 658.38,-432 664.38,-432 664.38,-432 711.12,-432 711.12,-432 717.12,-432 723.12,-438 723.12,-444 723.12,-444 723.12,-456 723.12,-456 723.12,-462 717.12,-468 711.12,-468"/>
<text xml:space="preserve" text-anchor="middle" x="687.75" y="-446.32" font-family="Helvetica,sans-Serif" font-size="9.00">Verified claim</text>
</g>
<!-- l2 -->
<g id="node21" class="node">
<title>l2</title>
<path fill="#fff3cd" stroke="#f0ad4e" d="M798.38,-468C798.38,-468 753.12,-468 753.12,-468 747.12,-468 741.12,-462 741.12,-456 741.12,-456 741.12,-444 741.12,-444 741.12,-438 747.12,-432 753.12,-432 753.12,-432 798.38,-432 798.38,-432 804.38,-432 810.38,-438 810.38,-444 810.38,-444 810.38,-456 810.38,-456 810.38,-462 804.38,-468 798.38,-468"/>
<text xml:space="preserve" text-anchor="middle" x="775.75" y="-446.32" font-family="Helvetica,sans-Serif" font-size="9.00">Key structure</text>
</g>
<!-- l3 -->
<g id="node22" class="node">
<title>l3</title>
<path fill="#f8f9fa" stroke="#dee2e6" d="M889.25,-468C889.25,-468 840.25,-468 840.25,-468 834.25,-468 828.25,-462 828.25,-456 828.25,-456 828.25,-444 828.25,-444 828.25,-438 834.25,-432 840.25,-432 840.25,-432 889.25,-432 889.25,-432 895.25,-432 901.25,-438 901.25,-444 901.25,-444 901.25,-456 901.25,-456 901.25,-462 895.25,-468 889.25,-468"/>
<text xml:space="preserve" text-anchor="middle" x="864.75" y="-446.32" font-family="Helvetica,sans-Serif" font-size="9.00">Derived result</text>
</g>
</g>
</svg>
