<?xml version="1.0" encoding="UTF-8" standalone="no"?>
<!DOCTYPE svg PUBLIC "-//W3C//DTD SVG 1.1//EN"
 "http://www.w3.org/Graphics/SVG/1.1/DTD/svg11.dtd">
<!-- Generated by graphviz version 14.1.4 (20260321.0153)
 -->
<!-- Title: system Pages: 1 -->
<svg width="206pt" height="440pt"
 viewBox="0.00 0.00 206.00 440.00" xmlns="http://www.w3.org/2000/svg" xmlns:xlink="http://www.w3.org/1999/xlink">
<g id="graph0" class="graph" transform="scale(1 1) rotate(0) translate(4 436.31)">
<title>system</title>
<!-- seed -->
<g id="node1" class="node">
<title>seed</title>
<ellipse fill="white" stroke="#343a40" stroke-width="2.5" cx="98.85" cy="-406.43" rx="71.91" ry="25.88"/>
<text xml:space="preserve" text-anchor="middle" x="98.85" y="-400.63" font-family="Helvetica,sans-Serif" font-weight="bold" font-size="14.00">x² = x + 1</text>
</g>
<!-- layer1 -->
<g id="node2" class="node">
<title>layer1</title>
<path fill="#e3f2fd" stroke="#4a90d9" stroke-width="2" d="M185.7,-312.05C185.7,-312.05 12,-312.05 12,-312.05 6,-312.05 0,-306.05 0,-300.05 0,-300.05 0,-266.45 0,-266.45 0,-260.45 6,-254.45 12,-254.45 12,-254.45 185.7,-254.45 185.7,-254.45 191.7,-254.45 197.7,-260.45 197.7,-266.45 197.7,-266.45 197.7,-300.05 197.7,-300.05 197.7,-306.05 191.7,-312.05 185.7,-312.05"/>
<text xml:space="preserve" text-anchor="middle" x="98.85" y="-290.8" font-family="Helvetica,sans-Serif" font-size="11.00">DERIVATION ENGINE</text>
<text xml:space="preserve" text-anchor="middle" x="98.85" y="-278.8" font-family="Helvetica,sans-Serif" font-size="11.00">Lean 4 formal proofs</text>
<text xml:space="preserve" text-anchor="middle" x="98.85" y="-266.8" font-family="Helvetica,sans-Serif" font-size="11.00">10,588+ theorems · zero axioms</text>
</g>
<!-- seed&#45;&gt;layer1 -->
<g id="edge1" class="edge">
<title>seed&#45;&gt;layer1</title>
<path fill="none" stroke="#6c757d" stroke-width="1.5" d="M98.85,-379.43C98.85,-362.96 98.85,-341.36 98.85,-322.9"/>
<polygon fill="#6c757d" stroke="#6c757d" stroke-width="1.5" points="101.65,-323.01 98.85,-315.01 96.05,-323.01 101.65,-323.01"/>
<text xml:space="preserve" text-anchor="middle" x="114.22" y="-343" font-family="Times,serif" font-size="9.00" fill="#6c757d"> &#160;derive &#160;</text>
</g>
<!-- layer2 -->
<g id="node3" class="node">
<title>layer2</title>
<path fill="#fff3cd" stroke="#f0ad4e" stroke-width="2" d="M177.82,-185.95C177.82,-185.95 19.88,-185.95 19.88,-185.95 13.88,-185.95 7.88,-179.95 7.88,-173.95 7.88,-173.95 7.88,-140.35 7.88,-140.35 7.88,-134.35 13.88,-128.35 19.88,-128.35 19.88,-128.35 177.82,-128.35 177.82,-128.35 183.82,-128.35 189.82,-134.35 189.82,-140.35 189.82,-140.35 189.82,-173.95 189.82,-173.95 189.82,-179.95 183.82,-185.95 177.82,-185.95"/>
<text xml:space="preserve" text-anchor="middle" x="98.85" y="-164.7" font-family="Helvetica,sans-Serif" font-size="11.00">KNOWLEDGE GRAPH</text>
<text xml:space="preserve" text-anchor="middle" x="98.85" y="-152.7" font-family="Helvetica,sans-Serif" font-size="11.00">Sisyphus · ~20,998 nodes</text>
<text xml:space="preserve" text-anchor="middle" x="98.85" y="-140.7" font-family="Helvetica,sans-Serif" font-size="11.00">Proof DAG · derivation depth</text>
</g>
<!-- layer1&#45;&gt;layer2 -->
<g id="edge2" class="edge">
<title>layer1&#45;&gt;layer2</title>
<path fill="none" stroke="#6c757d" stroke-width="1.5" d="M98.85,-253.47C98.85,-236.63 98.85,-215.15 98.85,-196.85"/>
<polygon fill="#6c757d" stroke="#6c757d" stroke-width="1.5" points="101.65,-197.05 98.85,-189.05 96.05,-197.05 101.65,-197.05"/>
<text xml:space="preserve" text-anchor="middle" x="118.72" y="-216.9" font-family="Times,serif" font-size="9.00" fill="#6c757d"> &#160;visualize &#160;</text>
</g>
<!-- layer3 -->
<g id="node4" class="node">
<title>layer3</title>
<path fill="#d4edda" stroke="#28a745" stroke-width="2" d="M171.45,-59.85C171.45,-59.85 26.25,-59.85 26.25,-59.85 20.25,-59.85 14.25,-53.85 14.25,-47.85 14.25,-47.85 14.25,-12 14.25,-12 14.25,-6 20.25,0 26.25,0 26.25,0 171.45,0 171.45,0 177.45,0 183.45,-6 183.45,-12 183.45,-12 183.45,-47.85 183.45,-47.85 183.45,-53.85 177.45,-59.85 171.45,-59.85"/>
<text xml:space="preserve" text-anchor="middle" x="98.85" y="-38.6" font-family="Helvetica,sans-Serif" font-size="11.00">PUBLICATION PIPELINE</text>
<text xml:space="preserve" text-anchor="middle" x="98.85" y="-26.6" font-family="Helvetica,sans-Serif" font-size="11.00">16 AI agents</text>
<text xml:space="preserve" text-anchor="middle" x="98.85" y="-14.6" font-family="Helvetica,sans-Serif" font-size="11.00">LaTeX → journal papers</text>
</g>
<!-- layer2&#45;&gt;layer3 -->
<g id="edge3" class="edge">
<title>layer2&#45;&gt;layer3</title>
<path fill="none" stroke="#6c757d" stroke-width="1.5" d="M98.85,-127.42C98.85,-110.68 98.85,-89.32 98.85,-70.96"/>
<polygon fill="#6c757d" stroke="#6c757d" stroke-width="1.5" points="101.65,-71.1 98.85,-63.1 96.05,-71.1 101.65,-71.1"/>
<text xml:space="preserve" text-anchor="middle" x="116.47" y="-90.8" font-family="Times,serif" font-size="9.00" fill="#6c757d"> &#160;publish &#160;</text>
</g>
</g>
</svg>
