<?xml version="1.0" encoding="UTF-8" standalone="no"?>
<!DOCTYPE svg PUBLIC "-//W3C//DTD SVG 1.1//EN"
 "http://www.w3.org/Graphics/SVG/1.1/DTD/svg11.dtd">
<!-- Generated by graphviz version 14.1.4 (20260321.0153)
 -->
<!-- Title: tower Pages: 1 -->
<svg width="288pt" height="673pt"
 viewBox="0.00 0.00 288.00 673.00" xmlns="http://www.w3.org/2000/svg" xmlns:xlink="http://www.w3.org/1999/xlink">
<g id="graph0" class="graph" transform="scale(1 1) rotate(0) translate(4 668.52)">
<title>tower</title>
<!-- x0 -->
<g id="node1" class="node">
<title>x0</title>
<ellipse fill="#e3f2fd" stroke="#4a90d9" cx="146.62" cy="-641.9" rx="52.15" ry="22.63"/>
<text xml:space="preserve" text-anchor="middle" x="146.62" y="-643.45" font-family="Helvetica,sans-Serif" font-size="11.00">X₀</text>
<text xml:space="preserve" text-anchor="middle" x="146.62" y="-631.45" font-family="Helvetica,sans-Serif" font-size="11.00">|X₀| = F₂ = 1</text>
</g>
<!-- x1 -->
<g id="node2" class="node">
<title>x1</title>
<ellipse fill="#e3f2fd" stroke="#4a90d9" cx="146.62" cy="-544.14" rx="52.15" ry="22.63"/>
<text xml:space="preserve" text-anchor="middle" x="146.62" y="-545.69" font-family="Helvetica,sans-Serif" font-size="11.00">X₁</text>
<text xml:space="preserve" text-anchor="middle" x="146.62" y="-533.69" font-family="Helvetica,sans-Serif" font-size="11.00">|X₁| = F₃ = 2</text>
</g>
<!-- x1&#45;&gt;x0 -->
<g id="edge1" class="edge">
<title>x1&#45;&gt;x0</title>
<path fill="none" stroke="#6c757d" stroke-width="2" d="M146.62,-566.87C146.62,-579.76 146.62,-596.29 146.62,-610.46"/>
<polygon fill="#6c757d" stroke="#6c757d" stroke-width="2" points="144.18,-608.9 146.63,-615.9 149.08,-608.9 144.18,-608.9"/>
<text xml:space="preserve" text-anchor="middle" x="159.38" y="-587.97" font-family="Times,serif" font-size="14.00"> &#160;Φ &#160;</text>
</g>
<!-- x2 -->
<g id="node3" class="node">
<title>x2</title>
<ellipse fill="#e3f2fd" stroke="#4a90d9" cx="146.62" cy="-446.39" rx="52.15" ry="22.63"/>
<text xml:space="preserve" text-anchor="middle" x="146.62" y="-447.94" font-family="Helvetica,sans-Serif" font-size="11.00">X₂</text>
<text xml:space="preserve" text-anchor="middle" x="146.62" y="-435.94" font-family="Helvetica,sans-Serif" font-size="11.00">|X₂| = F₄ = 3</text>
</g>
<!-- x2&#45;&gt;x1 -->
<g id="edge2" class="edge">
<title>x2&#45;&gt;x1</title>
<path fill="none" stroke="#6c757d" stroke-width="2" d="M146.62,-469.12C146.62,-482 146.62,-498.53 146.62,-512.7"/>
<polygon fill="#6c757d" stroke="#6c757d" stroke-width="2" points="144.18,-511.14 146.63,-518.14 149.08,-511.14 144.18,-511.14"/>
<text xml:space="preserve" text-anchor="middle" x="159.38" y="-490.21" font-family="Times,serif" font-size="14.00"> &#160;Φ &#160;</text>
</g>
<!-- x3 -->
<g id="node4" class="node">
<title>x3</title>
<ellipse fill="#e3f2fd" stroke="#4a90d9" cx="79.62" cy="-348.63" rx="52.15" ry="22.63"/>
<text xml:space="preserve" text-anchor="middle" x="79.62" y="-350.18" font-family="Helvetica,sans-Serif" font-size="11.00">X₃</text>
<text xml:space="preserve" text-anchor="middle" x="79.62" y="-338.18" font-family="Helvetica,sans-Serif" font-size="11.00">|X₃| = F₅ = 5</text>
</g>
<!-- x3&#45;&gt;x2 -->
<g id="edge3" class="edge">
<title>x3&#45;&gt;x2</title>
<path fill="none" stroke="#6c757d" stroke-width="2" d="M94.16,-370.41C103.84,-384.24 116.67,-402.58 127.22,-417.65"/>
<polygon fill="#6c757d" stroke="#6c757d" stroke-width="2" points="124.13,-417.51 130.15,-421.84 128.14,-414.7 124.13,-417.51"/>
<text xml:space="preserve" text-anchor="middle" x="129.89" y="-392.46" font-family="Times,serif" font-size="14.00"> &#160;Φ &#160;</text>
</g>
<!-- x4 -->
<g id="node5" class="node">
<title>x4</title>
<ellipse fill="#e3f2fd" stroke="#4a90d9" cx="79.62" cy="-250.88" rx="52.15" ry="22.63"/>
<text xml:space="preserve" text-anchor="middle" x="79.62" y="-252.43" font-family="Helvetica,sans-Serif" font-size="11.00">X₄</text>
<text xml:space="preserve" text-anchor="middle" x="79.62" y="-240.43" font-family="Helvetica,sans-Serif" font-size="11.00">|X₄| = F₆ = 8</text>
</g>
<!-- x4&#45;&gt;x3 -->
<g id="edge4" class="edge">
<title>x4&#45;&gt;x3</title>
<path fill="none" stroke="#6c757d" stroke-width="2" d="M79.62,-273.61C79.62,-286.49 79.62,-303.02 79.62,-317.19"/>
<polygon fill="#6c757d" stroke="#6c757d" stroke-width="2" points="77.18,-315.63 79.63,-322.63 82.08,-315.63 77.18,-315.63"/>
<text xml:space="preserve" text-anchor="middle" x="92.38" y="-294.7" font-family="Times,serif" font-size="14.00"> &#160;Φ &#160;</text>
</g>
<!-- dots -->
<g id="node6" class="node">
<title>dots</title>
<polygon fill="none" stroke="none" points="106.62,-191.25 52.62,-191.25 52.62,-155.25 106.62,-155.25 106.62,-191.25"/>
<text xml:space="preserve" text-anchor="middle" x="79.62" y="-168.17" font-family="Helvetica,sans-Serif" font-size="16.00">⋮</text>
</g>
<!-- dots&#45;&gt;x4 -->
<g id="edge5" class="edge">
<title>dots&#45;&gt;x4</title>
<path fill="none" stroke="#6c757d" stroke-width="2" d="M79.62,-191.03C79.62,-199.45 79.62,-209.9 79.62,-219.65"/>
<polygon fill="#6c757d" stroke="#6c757d" stroke-width="2" points="77.18,-217.94 79.63,-224.94 82.08,-217.94 77.18,-217.94"/>
</g>
<!-- xinf -->
<g id="node7" class="node">
<title>xinf</title>
<path fill="#fff3cd" stroke="#f0ad4e" stroke-width="2" d="M147.25,-118.25C147.25,-118.25 12,-118.25 12,-118.25 6,-118.25 0,-112.25 0,-106.25 0,-106.25 0,-86.25 0,-86.25 0,-80.25 6,-74.25 12,-74.25 12,-74.25 147.25,-74.25 147.25,-74.25 153.25,-74.25 159.25,-80.25 159.25,-86.25 159.25,-86.25 159.25,-106.25 159.25,-106.25 159.25,-112.25 153.25,-118.25 147.25,-118.25"/>
<text xml:space="preserve" text-anchor="middle" x="79.62" y="-103.8" font-family="Helvetica,sans-Serif" font-size="11.00">X_∞ = lim X_m</text>
<text xml:space="preserve" text-anchor="middle" x="79.62" y="-91.8" font-family="Helvetica,sans-Serif" font-size="11.00">Compact, totally disconnected</text>
<text xml:space="preserve" text-anchor="middle" x="79.62" y="-79.8" font-family="Helvetica,sans-Serif" font-size="11.00">Metrizable, infinite</text>
</g>
<!-- xinf&#45;&gt;dots -->
<g id="edge6" class="edge">
<title>xinf&#45;&gt;dots</title>
<path fill="none" stroke="#6c757d" stroke-width="2" d="M79.62,-118.94C79.62,-127.73 79.62,-137.93 79.62,-147.05"/>
<polygon fill="#6c757d" stroke="#6c757d" stroke-width="2" points="77.18,-145.34 79.63,-152.34 82.08,-145.34 77.18,-145.34"/>
</g>
<!-- ann1 -->
<g id="node8" class="node">
<title>ann1</title>
<polygon fill="#f8f9fa" stroke="#dee2e6" points="273.62,-366.63 149.62,-366.63 149.62,-330.63 279.62,-330.63 279.62,-360.63 273.62,-366.63"/>
<polyline fill="none" stroke="#dee2e6" points="273.62,-366.63 273.62,-360.63"/>
<polyline fill="none" stroke="#dee2e6" points="279.62,-360.63 273.62,-360.63"/>
<text xml:space="preserve" text-anchor="middle" x="214.62" y="-349.83" font-family="Helvetica,sans-Serif" font-size="9.00">Ring homomorphisms</text>
<text xml:space="preserve" text-anchor="middle" x="214.62" y="-340.08" font-family="Helvetica,sans-Serif" font-size="9.00">(surjective, zero&#45;preserving)</text>
</g>
<!-- ann1&#45;&gt;x2 -->
<g id="edge7" class="edge">
<title>ann1&#45;&gt;x2</title>
<path fill="none" stroke="#adb5bd" stroke-dasharray="5,2" d="M202.47,-366.75C191.01,-382.89 173.81,-407.11 161.52,-424.41"/>
</g>
<!-- ann2 -->
<g id="node9" class="node">
<title>ann2</title>
<polygon fill="#f8f9fa" stroke="#dee2e6" points="115.38,-37.25 37.88,-37.25 37.88,0 121.38,0 121.38,-31.25 115.38,-37.25"/>
<polyline fill="none" stroke="#dee2e6" points="115.38,-37.25 115.38,-31.25"/>
<polyline fill="none" stroke="#dee2e6" points="121.38,-31.25 115.38,-31.25"/>
<text xml:space="preserve" text-anchor="middle" x="79.62" y="-24.7" font-family="Helvetica,sans-Serif" font-size="9.00">Analogous to</text>
<text xml:space="preserve" text-anchor="middle" x="79.62" y="-14.95" font-family="Helvetica,sans-Serif" font-size="9.00">Z_p = lim Z/p^nZ</text>
<text xml:space="preserve" text-anchor="middle" x="79.62" y="-5.2" font-family="Helvetica,sans-Serif" font-size="9.00">(p&#45;adic integers)</text>
</g>
<!-- ann2&#45;&gt;xinf -->
<g id="edge8" class="edge">
<title>ann2&#45;&gt;xinf</title>
<path fill="none" stroke="#adb5bd" stroke-dasharray="5,2" d="M79.62,-37.55C79.62,-48.29 79.62,-62.03 79.62,-73.41"/>
</g>
</g>
</svg>
